<svg width="522" height="189" viewBox="0 0 522 189" fill="none" xmlns="http://www.w3.org/2000/svg">
<rect y="22" width="169.756" height="80" fill="#8DD603" fill-opacity="0.85"/>
<rect x="176.122" y="22" width="169.756" height="80" fill="#009CAB"/>
<rect x="352.244" y="22" width="169.756" height="80" fill="#3E9026"/>
<path d="M55.8842 52.75C52.1758 52.75 49.5092 53.5417 47.8842 55.125C46.2592 56.7083 45.4467 59.3542 45.4467 63.0625C45.4467 66.9375 46.655 69.7292 49.0717 71.4375C50.8217 72.6875 53.5092 73.3125 57.1342 73.3125H102.259C104.842 73.3125 106.134 74.5833 106.134 77.125C106.134 79.5833 104.905 80.875 102.447 81H56.0092C49.4675 81 44.7175 79.3333 41.7592 76C38.6758 72.5 37.1342 68.1458 37.1342 62.9375C37.1342 53.4375 40.7592 47.75 48.0092 45.875C50.0925 45.3333 52.7592 45.0625 56.0092 45.0625H116.322C122.155 45.0625 126.092 46.1667 128.134 48.375C130.301 50.7083 131.384 53.9583 131.384 58.125V81H123.259V59.625C123.259 57.9167 123.176 56.7292 123.009 56.0625C122.426 53.8542 120.551 52.75 117.384 52.75H55.8842Z" fill="white"/>
<path d="M224.564 54.75V78.875C224.564 81.625 223.21 83 220.502 83C217.793 83 216.439 81.6458 216.439 78.9375V78.875V47.0625H295.502C301.335 47.0625 305.272 48.1667 307.314 50.375C309.522 52.7917 310.627 56.0417 310.627 60.125V78.875V78.9375C310.627 81.6458 309.252 83 306.502 83C303.793 83 302.439 81.6458 302.439 78.9375V78.875V61.625C302.439 59.875 302.377 58.6875 302.252 58.0625C301.585 55.8542 299.689 54.75 296.564 54.75H224.564Z" fill="white"/>
<path d="M406.624 54.75C404.415 54.75 402.853 55.2292 401.936 56.1875C401.353 56.7708 400.999 57.375 400.874 58C400.749 58.625 400.686 59.8333 400.686 61.625V83H392.561V60.125C392.561 55.9583 393.644 52.7083 395.811 50.375C397.853 48.1667 401.811 47.0625 407.686 47.0625H472.686C476.728 47.0625 480.061 48.2083 482.686 50.5C485.436 52.9167 486.79 56.125 486.749 60.125C486.707 63.9167 485.415 67.0625 482.874 69.5625C480.374 72.0625 477.228 73.3125 473.436 73.3125L421.561 73.4375C419.103 73.3125 417.874 72.0208 417.874 69.5625C417.874 66.9792 419.165 65.6875 421.749 65.6875C421.999 65.6875 422.186 65.7083 422.311 65.75H472.311C476.894 65.75 479.144 63.9167 479.061 60.25C478.936 56.5833 476.457 54.75 471.624 54.75H406.624Z" fill="white"/>
<path d="M131.971 140.409L127.153 141.773C126.85 140.97 126.403 140.189 125.812 139.432C125.237 138.659 124.449 138.023 123.449 137.523C122.449 137.023 121.168 136.773 119.608 136.773C117.471 136.773 115.691 137.265 114.267 138.25C112.858 139.22 112.153 140.455 112.153 141.955C112.153 143.288 112.638 144.341 113.608 145.114C114.577 145.886 116.093 146.53 118.153 147.045L123.335 148.318C126.456 149.076 128.782 150.235 130.312 151.795C131.843 153.341 132.608 155.333 132.608 157.773C132.608 159.773 132.032 161.561 130.88 163.136C129.744 164.712 128.153 165.955 126.108 166.864C124.062 167.773 121.683 168.227 118.971 168.227C115.411 168.227 112.464 167.455 110.13 165.909C107.797 164.364 106.32 162.106 105.699 159.136L110.79 157.864C111.274 159.742 112.191 161.152 113.54 162.091C114.903 163.03 116.683 163.5 118.88 163.5C121.38 163.5 123.365 162.97 124.835 161.909C126.32 160.833 127.062 159.545 127.062 158.045C127.062 156.833 126.638 155.818 125.79 155C124.941 154.167 123.638 153.545 121.88 153.136L116.062 151.773C112.865 151.015 110.517 149.841 109.017 148.25C107.532 146.644 106.79 144.636 106.79 142.227C106.79 140.258 107.343 138.515 108.449 137C109.57 135.485 111.093 134.295 113.017 133.432C114.956 132.568 117.153 132.136 119.608 132.136C123.062 132.136 125.774 132.894 127.744 134.409C129.729 135.924 131.138 137.924 131.971 140.409ZM159.983 168.227C156.832 168.227 154.067 167.477 151.688 165.977C149.324 164.477 147.476 162.379 146.143 159.682C144.824 156.985 144.165 153.833 144.165 150.227C144.165 146.591 144.824 143.417 146.143 140.705C147.476 137.992 149.324 135.886 151.688 134.386C154.067 132.886 156.832 132.136 159.983 132.136C163.135 132.136 165.893 132.886 168.256 134.386C170.635 135.886 172.483 137.992 173.802 140.705C175.135 143.417 175.802 146.591 175.802 150.227C175.802 153.833 175.135 156.985 173.802 159.682C172.483 162.379 170.635 164.477 168.256 165.977C165.893 167.477 163.135 168.227 159.983 168.227ZM159.983 163.409C162.377 163.409 164.347 162.795 165.893 161.568C167.438 160.341 168.582 158.727 169.324 156.727C170.067 154.727 170.438 152.561 170.438 150.227C170.438 147.894 170.067 145.72 169.324 143.705C168.582 141.689 167.438 140.061 165.893 138.818C164.347 137.576 162.377 136.955 159.983 136.955C157.589 136.955 155.62 137.576 154.074 138.818C152.529 140.061 151.385 141.689 150.643 143.705C149.9 145.72 149.529 147.894 149.529 150.227C149.529 152.561 149.9 154.727 150.643 156.727C151.385 158.727 152.529 160.341 154.074 161.568C155.62 162.795 157.589 163.409 159.983 163.409ZM194.473 120.955V167.5H189.109V120.955H194.473ZM209.417 167.5V132.591H214.78V167.5H209.417ZM212.144 126.773C211.098 126.773 210.197 126.417 209.439 125.705C208.697 124.992 208.326 124.136 208.326 123.136C208.326 122.136 208.697 121.28 209.439 120.568C210.197 119.856 211.098 119.5 212.144 119.5C213.189 119.5 214.083 119.856 214.826 120.568C215.583 121.28 215.962 122.136 215.962 123.136C215.962 124.136 215.583 124.992 214.826 125.705C214.083 126.417 213.189 126.773 212.144 126.773ZM243.906 168.227C240.633 168.227 237.815 167.455 235.451 165.909C233.088 164.364 231.27 162.235 229.997 159.523C228.724 156.811 228.088 153.712 228.088 150.227C228.088 146.682 228.739 143.553 230.042 140.841C231.36 138.114 233.194 135.985 235.542 134.455C237.906 132.909 240.663 132.136 243.815 132.136C246.27 132.136 248.482 132.591 250.451 133.5C252.421 134.409 254.035 135.682 255.292 137.318C256.55 138.955 257.33 140.864 257.633 143.045H252.27C251.86 141.455 250.951 140.045 249.542 138.818C248.148 137.576 246.27 136.955 243.906 136.955C241.815 136.955 239.982 137.5 238.406 138.591C236.845 139.667 235.626 141.189 234.747 143.159C233.883 145.114 233.451 147.409 233.451 150.045C233.451 152.742 233.876 155.091 234.724 157.091C235.588 159.091 236.8 160.644 238.36 161.75C239.936 162.856 241.785 163.409 243.906 163.409C245.3 163.409 246.565 163.167 247.701 162.682C248.838 162.197 249.8 161.5 250.588 160.591C251.376 159.682 251.936 158.591 252.27 157.318H257.633C257.33 159.379 256.58 161.235 255.383 162.886C254.201 164.523 252.633 165.826 250.679 166.795C248.739 167.75 246.482 168.227 243.906 168.227ZM270.594 167.5V132.591H275.958V167.5H270.594ZM273.321 126.773C272.276 126.773 271.374 126.417 270.617 125.705C269.874 124.992 269.503 124.136 269.503 123.136C269.503 122.136 269.874 121.28 270.617 120.568C271.374 119.856 272.276 119.5 273.321 119.5C274.367 119.5 275.261 119.856 276.003 120.568C276.761 121.28 277.14 122.136 277.14 123.136C277.14 124.136 276.761 124.992 276.003 125.705C275.261 126.417 274.367 126.773 273.321 126.773ZM306.083 132.591V137.136H287.993V132.591H306.083ZM293.265 124.227H298.629V157.5C298.629 159.015 298.849 160.152 299.288 160.909C299.743 161.652 300.318 162.152 301.015 162.409C301.727 162.652 302.477 162.773 303.265 162.773C303.856 162.773 304.341 162.742 304.72 162.682C305.099 162.606 305.402 162.545 305.629 162.5L306.72 167.318C306.356 167.455 305.849 167.591 305.197 167.727C304.546 167.879 303.72 167.955 302.72 167.955C301.205 167.955 299.72 167.629 298.265 166.977C296.826 166.326 295.629 165.333 294.674 164C293.735 162.667 293.265 160.985 293.265 158.955V124.227ZM333.078 168.227C329.927 168.227 327.162 167.477 324.783 165.977C322.419 164.477 320.571 162.379 319.238 159.682C317.919 156.985 317.26 153.833 317.26 150.227C317.26 146.591 317.919 143.417 319.238 140.705C320.571 137.992 322.419 135.886 324.783 134.386C327.162 132.886 329.927 132.136 333.078 132.136C336.23 132.136 338.988 132.886 341.351 134.386C343.73 135.886 345.578 137.992 346.897 140.705C348.23 143.417 348.897 146.591 348.897 150.227C348.897 153.833 348.23 156.985 346.897 159.682C345.578 162.379 343.73 164.477 341.351 165.977C338.988 167.477 336.23 168.227 333.078 168.227ZM333.078 163.409C335.472 163.409 337.442 162.795 338.988 161.568C340.533 160.341 341.677 158.727 342.419 156.727C343.162 154.727 343.533 152.561 343.533 150.227C343.533 147.894 343.162 145.72 342.419 143.705C341.677 141.689 340.533 140.061 338.988 138.818C337.442 137.576 335.472 136.955 333.078 136.955C330.684 136.955 328.715 137.576 327.169 138.818C325.624 140.061 324.48 141.689 323.738 143.705C322.995 145.72 322.624 147.894 322.624 150.227C322.624 152.561 322.995 154.727 323.738 156.727C324.48 158.727 325.624 160.341 327.169 161.568C328.715 162.795 330.684 163.409 333.078 163.409ZM362.204 167.5V132.591H367.386V137.864H367.75C368.386 136.136 369.537 134.735 371.204 133.659C372.871 132.583 374.75 132.045 376.84 132.045C377.234 132.045 377.727 132.053 378.318 132.068C378.909 132.083 379.356 132.106 379.659 132.136V137.591C379.477 137.545 379.06 137.477 378.409 137.386C377.772 137.28 377.098 137.227 376.386 137.227C374.689 137.227 373.174 137.583 371.84 138.295C370.522 138.992 369.477 139.962 368.704 141.205C367.947 142.432 367.568 143.833 367.568 145.409V167.5H362.204ZM415.864 140.409L411.046 141.773C410.743 140.97 410.296 140.189 409.705 139.432C409.129 138.659 408.341 138.023 407.341 137.523C406.341 137.023 405.061 136.773 403.5 136.773C401.364 136.773 399.584 137.265 398.159 138.25C396.75 139.22 396.046 140.455 396.046 141.955C396.046 143.288 396.531 144.341 397.5 145.114C398.47 145.886 399.985 146.53 402.046 147.045L407.227 148.318C410.349 149.076 412.674 150.235 414.205 151.795C415.735 153.341 416.5 155.333 416.5 157.773C416.5 159.773 415.924 161.561 414.773 163.136C413.637 164.712 412.046 165.955 410 166.864C407.955 167.773 405.576 168.227 402.864 168.227C399.303 168.227 396.356 167.455 394.023 165.909C391.69 164.364 390.212 162.106 389.591 159.136L394.682 157.864C395.167 159.742 396.084 161.152 397.432 162.091C398.796 163.03 400.576 163.5 402.773 163.5C405.273 163.5 407.258 162.97 408.727 161.909C410.212 160.833 410.955 159.545 410.955 158.045C410.955 156.833 410.531 155.818 409.682 155C408.834 154.167 407.531 153.545 405.773 153.136L399.955 151.773C396.758 151.015 394.409 149.841 392.909 148.25C391.424 146.644 390.682 144.636 390.682 142.227C390.682 140.258 391.235 138.515 392.341 137C393.462 135.485 394.985 134.295 396.909 133.432C398.849 132.568 401.046 132.136 403.5 132.136C406.955 132.136 409.667 132.894 411.637 134.409C413.621 135.924 415.031 137.924 415.864 140.409Z" fill="#808080"/>
</svg>
